# xmcd
#
# Track frame offsets: 
#        150
#        17454
#        34756
#        50110
#        67950
#        82623
#        97508
#        111965
#        126045
#        141336
#        155884
#        174207
#        191198
#        205649
#        220231
#
# Disc length: 3099 seconds
#
# Revision: 0
# Processed by: cddbd v1.5.2PL0 Copyright (c) Steve Scherf et al.
# Submitted via: ExactAudioCopyFreeDBPlugin 1.0
#
DISCID=c40c190f
DTITLE=Marie Hodson - Bitterweeds
DYEAR=1900
DGENRE=Country
TTITLE0=Bitterweeds
TTITLE1=The Part I Don't Understand
TTITLE2=Leavin Louisiana By The Broad Daylight
TTITLE3=Masquerade Of A Fool
TTITLE4=Jackson
TTITLE5=I Can't Win
TTITLE6=It's Friday Night
TTITLE7=For Cryin Out Loud
TTITLE8=If Not For Yesterday
TTITLE9=Make The World Go Away
TTITLE10=Do You Want Love With That
TTITLE11=It's Not Your Fault
TTITLE12=As If You Don't Know
TTITLE13=No Cheatin Required
TTITLE14=Neshoba County Jail
EXTD=
EXTT0=
EXTT1=
EXTT2=
EXTT3=
EXTT4=
EXTT5=
EXTT6=
EXTT7=
EXTT8=
EXTT9=
EXTT10=
EXTT11=
EXTT12=
EXTT13=
EXTT14=
PLAYORDER=
